# AST/ASF file generated using VICON BodyLanguage
# -----------------------------------------------
:version 1.10
:name VICON
:units
  mass 1.0
  length 0.45
  angle deg
:documentation
   .ast/.asf automatically generated from VICON data using
   VICON BodyBuilder and BodyLanguage model FoxedUp or BRILLIANT.MOD
:root
   order TX TY TZ RX RY RZ
   axis XYZ
   position 0 0 0  
   orientation 0 0 0 
:bonedata
  begin
     id 1 
     name lhipjoint
     direction 0.64773 -0.699417 0.302095 
     length 2.48597 
     axis 0 0 0  XYZ
  end
  begin
     id 2 
     name lfemur
     direction 0.34202 -0.939693 0  
     length 6.71947  
     axis 0 0 20  XYZ
    dof rx ry rz
    limits (-160.0 20.0)
           (-70.0 70.0)
           (-60.0 70.0)
  end
  begin
     id 3 
     name ltibia
     direction 0.34202 -0.939693 0   
     length 8.08777   
     axis 0 0 20   XYZ
    dof rx
    limits (-10.0 170.0)
  end
  begin
     id 4 
     name lfoot
     direction 0.0808503 -0.222134 0.971658   
     length 2.08264   
     axis -90 7.62852e-016 20   XYZ
    dof rx rz
    limits (-45.0 90.0)
           (-70.0 20.0)
  end
  begin
     id 5 
     name ltoes
     direction 1.53502e-011 -4.22007e-011 1   
     length 1.04662   
     axis -90 7.62852e-016 20   XYZ
    dof rx
    limits (-90.0 20.0)
  end
  begin
     id 6 
     name rhipjoint
     direction -0.610924 -0.726792 0.313919   
     length 2.39233  
     axis 0 0 0  XYZ 
  end
  begin
     id 7 
     name rfemur
     direction -0.34202 -0.939693 0   
     length 6.96955   
     axis 0 0 -20   XYZ
    dof rx ry rz
    limits (-160.0 20.0)
           (-70.0 70.0)
           (-70.0 60.0)
  end
  begin
     id 8 
     name rtibia
     direction -0.34202 -0.939693 0   
     length 8.19584   
     axis 0 0 -20   XYZ
    dof rx
    limits (-10.0 170.0)
 end
 begin
     id 9 
     name rfoot
     direction -0.077777 -0.213691 0.9738   
     length 2.07539  
     axis -90 -7.62852e-016 -20   XYZ
    dof rx rz
    limits (-45.0 90.0)
           (-20.0 70.0)
  end
  begin
     id 10 
     name rtoes
     direction -1.53558e-011 -4.22006e-011 1   
     length 1.04381   
     axis -90 -7.62852e-016 -20   XYZ
    dof rx
    limits (-90.0 20.0)
  end
  begin
     id 11 
     name lowerback
     direction -0.00971646 0.996074 0.0879841   
     length 1.67643   
     axis 0 0 0   XYZ
    dof rx ry rz
    limits (-20.0 45.0)
           (-30.0 30.0)
           (-30.0 30.0)
  end
  begin
     id 12 
     name upperback
     direction 0.0127391 0.991676 0.128127   
     length 1.63741   
     axis 0 0 0   XYZ
    dof rx ry rz
    limits (-20.0 45.0)
           (-30.0 30.0)
           (-30.0 30.0)
  end
  begin
     id 13 
     name thorax
     direction 0.0167583 0.996049 0.0872067   
     length 1.65931   
     axis 0 0 0   XYZ
    dof rx ry rz
    limits (-20.0 45.0)
           (-30.0 30.0)
           (-30.0 30.0)
  end
  begin
     id 14 
     name lowerneck
     direction -0.0317829 0.998312 0.0486079   
     length 1.79021   
     axis 0 0 0   XYZ
    dof rx ry rz
    limits (-20.0 45.0)
           (-30.0 30.0)
           (-30.0 30.0)
  end
  begin
     id 15 
     name upperneck
     direction 0.0896851 0.972452 -0.215159   
     length 1.78797   
     axis 0 0 0   XYZ
    dof rx ry rz
    limits (-20.0 45.0)
           (-30.0 30.0)
           (-30.0 30.0)
  end
  begin
     id 16
     name head
     direction 0.0310949 0.996503 -0.0775582  
     length 1.81549  
     axis 0 0 0   XYZ
    dof rx ry rz
    limits (-20.0 45.0)
           (-30.0 30.0)
           (-30.0 30.0)
  end
  begin
     id 17 
     name lclavicle
     direction 0.853638 0.502051 -0.138733  
     length 3.31627  
     axis 0 0 0   XYZ
    dof ry rz
    limits (-20.0 10.0)
           (0.0 20.0)
  end
  begin
     id 18 
     name lhumerus
     direction 1 -4.48962e-011 -1.41788e-018   
     length 5.54893   
     axis 180 -30 -90   XYZ
    dof rx ry rz
    limits (-60.0 90.0)
           (-90.0 90.0)
           (-90.0 90.0)
  end
  begin
     id 19
     name lradius
     direction 1 -4.48962e-011 -4.95754e-027   
     length 3.02898   
     axis 180 -30 -90   XYZ
    dof rx
    limits (-10.0 170.0)
  end
  begin
     id 20
     name lwrist
     direction 1 -4.48952e-011 -1.03764e-026   
     length 1.51449   
     axis 9.09556e-015 90 90   XYZ
    dof ry
    limits (-180.0 0.0)
 end
  begin
     id 21 
     name lhand
     direction 1 -4.4902e-011 -2.07528e-026   
     length 0.640951   
     axis 1.3242e-014 90 90   XYZ
    dof rx rz
    limits (-90.0 90.0)
           (-45.0 45.0)
  end
  begin
     id 22 
     name lfingers
     direction 1 -4.49014e-011 -4.15056e-026   
     length 0.516751   
     axis 2.64841e-014 90 90   XYZ
    dof rx
    limits (0.0 90.0)
  end
  begin
     id 23
     name lthumb
     direction 0.707107 -6.35008e-011 0.707107   
     length 0.741954   
     axis -90 45 2.85299e-015   XYZ
    dof rx rz
    limits (-45.0 45.0)
           (-45.0 45.0)
  end
  begin
     id 24 
     name rclavicle
     direction -0.888531 0.455324 -0.0565039   
     length 3.20126  
     axis 0 0 0   XYZ 
    dof ry rz
    limits (-10.0 20.0)
           (-20.0 0.0)
  end
  begin
     id 25 
     name rhumerus
     direction -1 -4.48946e-011 -8.98298e-028  
     length 5.3519   
     axis 180 30 90   XYZ
    dof rx ry rz
    limits (-90.0 60.0)
           (-90.0 90.0)
           (-90.0 90.0)
  end
  begin
     id 26 
     name rradius
     direction -1 -4.4899e-011 -3.18779e-027   
     length 3.02531   
     axis 180 30 90   XYZ
    dof rx
    limits (-10.0 170.0)
  end
  begin
     id 27 
     name rwrist
     direction -1 -4.4897e-011 -1.03764e-026   
     length 1.51266   
     axis 9.09556e-015 -90 -90   XYZ
    dof ry
    limits (-180.0 0.0)
  end
  begin
     id 28
     name rhand
     direction -1 -4.48941e-011 -2.07528e-026   
     length 0.78389   
     axis 1.3242e-014 -90 -90   XYZ
    dof rx rz
    limits (-90.0 90.0)
           (-45.0 45.0)
  end
  begin
     id 29
     name rfingers
     direction -1 -4.49012e-011 -4.15056e-026   
     length 0.631992   
     axis 2.64841e-014 -90 -90   XYZ
    dof rx
    limits (0.0 90.0)
  end
  begin
     id 30
     name rthumb
     direction -0.707107 -6.3496e-011 0.707107   
     length 0.907418   
     axis -90 -45 -2.85299e-015   XYZ
    dof rx rz
    limits (-45.0 45.0)
           (-45.0 45.0)
  end
:hierarchy
  begin
    root lhipjoint rhipjoint lowerback
    lhipjoint lfemur
    lfemur ltibia
    ltibia lfoot
    lfoot ltoes
    rhipjoint rfemur
    rfemur rtibia
    rtibia rfoot
    rfoot rtoes
    lowerback upperback
    upperback thorax
    thorax lowerneck lclavicle rclavicle
    lowerneck upperneck
    upperneck head
    lclavicle lhumerus
    lhumerus lradius
    lradius lwrist
    lwrist lhand lthumb
    lhand lfingers
    rclavicle rhumerus
    rhumerus rradius
    rradius rwrist
    rwrist rhand rthumb
    rhand rfingers
  end

#!OML:ASF E:\Style3\Style3.ASF
:FULLY-SPECIFIED
:DEGREES
830
root 0.0216905 17.8059 0.872914 -172.191 84.2398 173.579
lowerback -6.61849 -3.99751 -0.509945
upperback -8.17538 -4.94903 1.52457
thorax -4.6092 -2.26635 1.72445
lowerneck -12.6561 -0.681537 -4.77906
upperneck 17.2949 -1.63447 9.72102
head 7.51362 -0.117003 3.84789
rclavicle -3.16316e-014 1.43125e-014
rhumerus -104.616 48.2386 -124.664
rradius 114.508
rwrist 3.2304
rhand -3.65191 33.0928
rfingers 7.12502
rthumb 22.0882 4.33435
lclavicle -3.16316e-014 1.43125e-014
lhumerus -14.7004 -45.2055 52.0914
lradius 25.3852
lwrist -54.0836
lhand 1.78383 20.5104
lfingers 7.12502
lthumb 27.2978 48.5543
rfemur -14.7006 9.1825 18.2463
rtibia 18.2149
rfoot -16.4666 -23.1387
rtoes -14.7679
lfemur -7.85622 -28.6164 -11.7472
ltibia 6.36111e-015
lfoot -7.86466 26.3776
ltoes -18.4553
831
root 0.00951383 17.8072 0.874819 -172.388 84.4004 173.401
lowerback -6.44009 -4.09042 -0.520764
upperback -8.21952 -5.07369 1.55677
thorax -4.74813 -2.32606 1.77535
lowerneck -12.6743 -0.508491 -4.73468
upperneck 17.3371 -1.40613 9.71768
head 7.51182 -0.00450325 3.86317
rclavicle 4.65653e-014 7.55382e-015
rhumerus -104.673 48.2785 -124.716
rradius 114.47
rwrist 3.3039
rhand -3.62332 33.0832
rfingers 7.12502
rthumb 22.1156 4.32798
lclavicle 4.65653e-014 7.55382e-015
lhumerus -13.7723 -39.7022 51.8788
lradius 22.7411
lwrist -57.54
lhand 0.707032 20.4474
lfingers 7.12502
lthumb 26.2674 48.6491
rfemur -14.8315 9.26622 18.2161
rtibia 18.3566
rfoot -16.5105 -23.0199
rtoes -14.7027
lfemur -7.85126 -28.4594 -11.7767
ltibia -7.95139e-015
lfoot -7.71261 26.3728
ltoes -18.8023
832
root -0.000709446 17.8068 0.877248 -172.974 84.5981 172.847
lowerback -6.26404 -4.13368 -0.539728
upperback -8.25285 -5.13393 1.54409
thorax -4.8796 -2.35469 1.78605
lowerneck -12.696 -0.375663 -4.77909
upperneck 17.3264 -1.23699 9.85137
head 7.49931 0.0859797 3.93238
rclavicle 1.57785e-014 -7.7526e-015
rhumerus -104.631 48.2036 -124.677
rradius 114.355
rwrist 3.50639
rhand -3.7906 33.02
rfingers 7.12502
rthumb 21.955 4.24593
lclavicle 1.57785e-014 -7.7526e-015
lhumerus -12.8984 -33.5016 51.6845
lradius 20.2425
lwrist -62.0019
lhand -0.540839 20.5977
lfingers 7.12502
lthumb 25.0722 48.9718
rfemur -14.9468 9.29781 18.1612
rtibia 18.5152
rfoot -16.4491 -22.9151
rtoes -14.6799
lfemur -7.78911 -28.2729 -11.8634
ltibia 4.77083e-015
lfoot -7.90789 26.3005
ltoes -18.3246
833
root -0.0114562 17.8077 0.877564 -173.85 84.8132 172.007
lowerback -6.13892 -4.17413 -0.562776
upperback -8.25114 -5.19264 1.51252
thorax -4.94675 -2.38449 1.77428
lowerneck -12.7047 -0.222523 -4.80134
upperneck 17.2865 -1.0503 10.0284
head 7.47332 0.189739 4.01316
rclavicle -2.80038e-014 -5.96354e-016
rhumerus -104.542 48.1303 -124.647
rradius 114.299
rwrist 3.63587
rhand -4.06637 32.9493
rfingers 7.12502
rthumb 21.6902 4.14433
lclavicle -2.80038e-014 -5.96354e-016
lhumerus -12.0823 -25.9734 51.3742
lradius 17.947
lwrist -68.1693
lhand -1.53377 20.5852
lfingers 7.12502
lthumb 24.1205 49.0889
rfemur -15.0662 9.28583 18.0626
rtibia 18.6679
rfoot -16.4281 -22.6864
rtoes -14.7778
lfemur -7.71015 -28.0753 -11.9991
ltibia -1.59028e-015
lfoot -8.05358 26.2663
ltoes -18.0309
834
root -0.0190315 17.8069 0.876592 -175.122 85.0463 170.807
lowerback -6.07871 -4.23101 -0.600094
upperback -8.2053 -5.27478 1.48476
thorax -4.9282 -2.42723 1.76677
lowerneck -12.7159 -0.0331997 -4.76623
upperneck 17.2137 -0.81062 10.1316
head 7.43197 0.314576 4.0634
rclavicle 6.80837e-015 1.07344e-014
rhumerus -104.496 48.1752 -124.657
rradius 114.345
rwrist 3.59397
rhand -4.0984 32.9585
rfingers 7.12502
rthumb 21.6595 4.15005
lclavicle 6.80837e-015 1.07344e-014
lhumerus -11.3996 -16.1231 50.8942
lradius 15.9158
lwrist -76.9856
lhand -2.52296 20.1725
lfingers 7.12502
lthumb 23.1717 48.7988
rfemur -15.1379 9.20781 17.9543
rtibia 18.8311
rfoot -16.367 -22.4795
rtoes -15.3908
lfemur -7.55628 -27.8688 -12.2044
ltibia -7.95139e-015
lfoot -8.05642 26.2092
ltoes -18.2297
835
root -0.0241698 17.806 0.875628 -175.043 85.2472 170.976
lowerback -6.03432 -4.28492 -0.498309
upperback -8.14964 -5.35551 1.47304
thorax -4.90167 -2.47637 1.69786
lowerneck -12.7718 0.154843 -4.69774
upperneck 17.171 -0.574553 10.2019
head 7.4086 0.438372 4.0977
rclavicle 2.42517e-014 -3.97569e-016
rhumerus -104.435 48.1763 -124.664
rradius 114.39
rwrist 3.4763
rhand -4.10978 33.1028
rfingers 7.12502
rthumb 21.6485 4.29303
lclavicle 2.42517e-014 -3.97569e-016
lhumerus -10.9924 -3.18199 50.1744
lradius 14.2728
lwrist -89.3292
lhand -3.37358 19.5724
lfingers 7.12502
lthumb 22.3554 48.2989
rfemur -15.1596 9.04957 17.9973
rtibia 18.9706
rfoot -16.2681 -22.2185
rtoes -15.7479
lfemur -7.39231 -27.6826 -12.2804
ltibia -9.54166e-015
lfoot -7.84652 26.1988
ltoes -18.7452
